<svg width="23" height="23" viewBox="0 0 23 23" fill="none" xmlns="http://www.w3.org/2000/svg">
<path d="M20.625 22.375L13.625 15.375C13 15.875 12.2812 16.2708 11.4688 16.5625C10.6562 16.8542 9.79167 17 8.875 17C6.60417 17 4.6825 16.2133 3.11 14.64C1.5375 13.0667 0.750833 11.145 0.75 8.875C0.75 6.60417 1.53667 4.6825 3.11 3.11C4.68333 1.5375 6.605 0.750833 8.875 0.75C11.1458 0.75 13.0675 1.53667 14.64 3.11C16.2125 4.68333 16.9992 6.605 17 8.875C17 9.79167 16.8542 10.6562 16.5625 11.4688C16.2708 12.2812 15.875 13 15.375 13.625L22.4062 20.6562C22.6354 20.8854 22.75 21.1667 22.75 21.5C22.75 21.8333 22.625 22.125 22.375 22.375C22.1458 22.6042 21.8542 22.7188 21.5 22.7188C21.1458 22.7188 20.8542 22.6042 20.625 22.375ZM8.875 14.5C10.4375 14.5 11.7658 13.9529 12.86 12.8588C13.9542 11.7646 14.5008 10.4367 14.5 8.875C14.5 7.3125 13.9529 5.98417 12.8588 4.89C11.7646 3.79583 10.4367 3.24917 8.875 3.25C7.3125 3.25 5.98417 3.79708 4.89 4.89125C3.79583 5.98542 3.24917 7.31333 3.25 8.875C3.25 10.4375 3.79708 11.7658 4.89125 12.86C5.98542 13.9542 7.31333 14.5008 8.875 14.5Z" fill="white"/>
</svg>
